<svg xmlns="http://www.w3.org/2000/svg" xmlns:xlink="http://www.w3.org/1999/xlink" width="500" zoomAndPan="magnify" viewBox="0 0 375 374.999991" height="500" preserveAspectRatio="xMidYMid meet" version="1.2"><defs><clipPath id="6b254e9eb3"><path d="M 77 14.660156 L 300 14.660156 L 300 146 L 77 146 Z M 77 14.660156 "/></clipPath><clipPath id="6336824508"><path d="M 186 142 L 375 142 L 375 360.410156 L 186 360.410156 Z M 186 142 "/></clipPath><clipPath id="90dc52447d"><path d="M 112 271 L 266 271 L 266 360.410156 L 112 360.410156 Z M 112 271 "/></clipPath><clipPath id="36f94c9941"><path d="M 0 36 L 116 36 L 116 360.410156 L 0 360.410156 Z M 0 36 "/></clipPath></defs><g id="2074940f82"><g clip-rule="nonzero" clip-path="url(#6b254e9eb3)"><path style=" stroke:none;fill-rule:nonzero;fill:#64ffda;fill-opacity:1;" d="M 261.265625 145.808594 C 260.941406 145.808594 260.640625 145.722656 260.367188 145.554688 L 187.101562 101.21875 L 115.125 145.546875 C 114.863281 145.707031 114.578125 145.792969 114.269531 145.804688 C 113.960938 145.8125 113.671875 145.746094 113.398438 145.601562 L 77.964844 126.703125 C 77.6875 126.554688 77.46875 126.347656 77.304688 126.078125 C 77.136719 125.8125 77.054688 125.519531 77.046875 125.207031 C 77.039062 124.890625 77.113281 124.597656 77.269531 124.324219 C 77.421875 124.046875 77.632812 123.832031 77.90625 123.671875 L 151.878906 80.332031 L 77.941406 39.285156 C 77.667969 39.132812 77.453125 38.925781 77.296875 38.660156 C 77.136719 38.390625 77.054688 38.105469 77.050781 37.792969 C 77.046875 37.484375 77.121094 37.191406 77.273438 36.921875 C 77.425781 36.652344 77.632812 36.4375 77.902344 36.277344 L 113.925781 15.015625 C 114.195312 14.855469 114.488281 14.773438 114.800781 14.773438 C 115.117188 14.769531 115.410156 14.847656 115.679688 15.007812 L 187.121094 56.441406 L 259.460938 16.5 C 259.726562 16.355469 260.007812 16.28125 260.308594 16.285156 C 260.609375 16.285156 260.890625 16.359375 261.152344 16.507812 L 298.738281 37.675781 C 299.007812 37.828125 299.222656 38.039062 299.378906 38.308594 C 299.535156 38.574219 299.617188 38.863281 299.617188 39.175781 C 299.621094 39.484375 299.542969 39.773438 299.390625 40.042969 C 299.238281 40.3125 299.027344 40.527344 298.757812 40.683594 L 228.699219 81.464844 L 298.746094 121.898438 C 299.015625 122.054688 299.226562 122.265625 299.378906 122.535156 C 299.535156 122.804688 299.609375 123.09375 299.609375 123.40625 C 299.605469 123.714844 299.527344 124.003906 299.371094 124.273438 C 299.214844 124.539062 299 124.75 298.730469 124.902344 L 262.117188 145.574219 C 261.851562 145.726562 261.570312 145.804688 261.265625 145.808594 Z M 82.335938 125.105469 L 114.152344 142.074219 L 186.1875 97.714844 C 186.464844 97.546875 186.761719 97.460938 187.089844 97.457031 C 187.414062 97.457031 187.714844 97.539062 187.992188 97.707031 L 261.292969 142.066406 L 294.378906 123.386719 L 224.371094 82.972656 C 224.105469 82.816406 223.890625 82.605469 223.738281 82.335938 C 223.582031 82.070312 223.503906 81.78125 223.503906 81.46875 C 223.503906 81.160156 223.582031 80.871094 223.738281 80.601562 C 223.890625 80.332031 224.105469 80.121094 224.371094 79.964844 L 294.398438 39.210938 L 260.292969 20.003906 L 187.933594 59.957031 C 187.667969 60.105469 187.378906 60.175781 187.074219 60.171875 C 186.769531 60.171875 186.488281 60.09375 186.222656 59.9375 L 114.8125 18.519531 L 82.273438 37.722656 L 156.222656 78.773438 C 156.496094 78.921875 156.714844 79.132812 156.871094 79.402344 C 157.03125 79.667969 157.113281 79.957031 157.117188 80.269531 C 157.121094 80.582031 157.046875 80.871094 156.894531 81.144531 C 156.738281 81.414062 156.527344 81.628906 156.257812 81.785156 Z M 82.335938 125.105469 "/></g><path style=" stroke:none;fill-rule:nonzero;fill:#64ffda;fill-opacity:1;" d="M 298.839844 212.609375 C 298.609375 212.609375 298.390625 212.566406 298.179688 212.480469 C 297.964844 212.390625 297.777344 212.265625 297.617188 212.105469 C 297.453125 211.945312 297.328125 211.757812 297.238281 211.546875 C 297.152344 211.335938 297.105469 211.113281 297.105469 210.886719 L 296.625 124.597656 C 296.472656 124.4375 296.351562 124.253906 296.269531 124.050781 C 296.1875 123.84375 296.144531 123.628906 296.144531 123.410156 C 296.140625 123.1875 296.183594 122.972656 296.261719 122.769531 C 296.34375 122.5625 296.460938 122.378906 296.609375 122.214844 L 296.148438 39.199219 C 296.148438 38.96875 296.191406 38.746094 296.277344 38.535156 C 296.363281 38.320312 296.488281 38.132812 296.648438 37.96875 C 296.8125 37.804688 296.996094 37.679688 297.210938 37.589844 C 297.421875 37.5 297.640625 37.457031 297.871094 37.453125 L 297.882812 37.453125 C 298.113281 37.453125 298.332031 37.5 298.542969 37.585938 C 298.757812 37.671875 298.941406 37.796875 299.105469 37.960938 C 299.269531 38.121094 299.394531 38.308594 299.484375 38.519531 C 299.570312 38.730469 299.617188 38.949219 299.617188 39.179688 L 300.078125 122.683594 L 373.90625 166.195312 C 374.035156 166.273438 374.152344 166.367188 374.261719 166.472656 C 374.367188 166.582031 374.457031 166.703125 374.53125 166.832031 C 374.605469 166.964844 374.664062 167.101562 374.703125 167.25 C 374.742188 167.394531 374.757812 167.542969 374.757812 167.695312 C 374.757812 167.847656 374.738281 167.996094 374.699219 168.140625 C 374.660156 168.289062 374.601562 168.425781 374.527344 168.558594 C 374.453125 168.6875 374.359375 168.808594 374.253906 168.914062 C 374.148438 169.023438 374.027344 169.113281 373.898438 169.191406 L 299.710938 212.375 C 299.441406 212.53125 299.152344 212.609375 298.839844 212.609375 Z M 300.105469 126.722656 L 300.554688 207.867188 L 369.59375 167.683594 Z M 300.105469 126.722656 "/><g clip-rule="nonzero" clip-path="url(#6336824508)"><path style=" stroke:none;fill-rule:nonzero;fill:#64ffda;fill-opacity:1;" d="M 263.628906 360.324219 C 263.398438 360.324219 263.175781 360.28125 262.964844 360.191406 C 262.75 360.105469 262.5625 359.976562 262.398438 359.816406 C 262.238281 359.652344 262.113281 359.464844 262.023438 359.253906 C 261.9375 359.039062 261.890625 358.820312 261.890625 358.589844 L 261.890625 275.242188 L 189.542969 317.421875 C 189.410156 317.5 189.269531 317.558594 189.125 317.597656 C 188.976562 317.636719 188.828125 317.660156 188.675781 317.660156 C 188.523438 317.660156 188.375 317.640625 188.226562 317.601562 C 188.082031 317.566406 187.941406 317.507812 187.808594 317.433594 C 187.675781 317.355469 187.554688 317.265625 187.449219 317.160156 C 187.339844 317.054688 187.246094 316.933594 187.171875 316.800781 C 187.09375 316.671875 187.035156 316.53125 186.996094 316.386719 C 186.953125 316.238281 186.933594 316.089844 186.933594 315.9375 L 186.597656 273.5625 C 186.59375 273.25 186.671875 272.957031 186.828125 272.6875 C 186.984375 272.414062 187.195312 272.203125 187.46875 272.046875 L 259.675781 230.46875 L 259.53125 144.070312 C 259.53125 143.84375 259.574219 143.621094 259.660156 143.410156 C 259.75 143.195312 259.875 143.007812 260.039062 142.84375 C 260.199219 142.683594 260.386719 142.558594 260.601562 142.46875 C 260.8125 142.382812 261.035156 142.335938 261.265625 142.335938 C 261.496094 142.335938 261.714844 142.382812 261.929688 142.46875 C 262.140625 142.558594 262.328125 142.683594 262.492188 142.84375 C 262.652344 143.007812 262.777344 143.195312 262.867188 143.410156 C 262.953125 143.621094 263 143.84375 263 144.070312 L 263.144531 231.472656 C 263.144531 231.785156 263.070312 232.074219 262.914062 232.34375 C 262.757812 232.609375 262.546875 232.824219 262.277344 232.976562 L 190.074219 274.550781 L 190.378906 312.921875 L 262.753906 270.722656 C 263.019531 270.566406 263.3125 270.488281 263.621094 270.488281 C 263.933594 270.484375 264.222656 270.5625 264.492188 270.71875 C 264.761719 270.875 264.976562 271.085938 265.128906 271.355469 C 265.285156 271.625 265.363281 271.914062 265.363281 272.226562 L 265.363281 355.609375 L 296.148438 338.09375 L 296.148438 252.730469 C 296.148438 252.417969 296.230469 252.125 296.386719 251.851562 C 296.546875 251.582031 296.765625 251.367188 297.039062 251.214844 L 371.289062 209.855469 L 371.289062 167.691406 C 371.289062 167.460938 371.332031 167.238281 371.417969 167.027344 C 371.507812 166.816406 371.632812 166.628906 371.796875 166.464844 C 371.957031 166.300781 372.144531 166.175781 372.359375 166.089844 C 372.570312 166 372.792969 165.957031 373.023438 165.957031 C 373.253906 165.957031 373.472656 166 373.6875 166.089844 C 373.898438 166.175781 374.085938 166.300781 374.25 166.464844 C 374.410156 166.628906 374.535156 166.816406 374.625 167.027344 C 374.710938 167.238281 374.757812 167.460938 374.757812 167.691406 L 374.757812 210.875 C 374.757812 211.191406 374.675781 211.484375 374.519531 211.753906 C 374.359375 212.027344 374.140625 212.238281 373.867188 212.390625 L 299.617188 253.75 L 299.617188 339.101562 C 299.617188 339.410156 299.539062 339.703125 299.382812 339.96875 C 299.226562 340.238281 299.011719 340.449219 298.742188 340.605469 L 264.484375 360.09375 C 264.21875 360.246094 263.933594 360.320312 263.628906 360.324219 Z M 263.628906 360.324219 "/></g><path style=" stroke:none;fill-rule:nonzero;fill:#64ffda;fill-opacity:1;" d="M 261.410156 233.207031 C 261.09375 233.207031 260.800781 233.125 260.53125 232.964844 L 187.453125 189.855469 C 187.191406 189.699219 186.984375 189.492188 186.832031 189.230469 C 186.679688 188.96875 186.601562 188.6875 186.597656 188.386719 L 185.359375 99.210938 C 185.355469 98.980469 185.398438 98.757812 185.484375 98.542969 C 185.566406 98.332031 185.691406 98.140625 185.851562 97.976562 C 186.011719 97.808594 186.195312 97.683594 186.410156 97.589844 C 186.621094 97.5 186.839844 97.453125 187.070312 97.449219 C 187.300781 97.445312 187.523438 97.488281 187.738281 97.574219 C 187.953125 97.65625 188.140625 97.78125 188.304688 97.941406 C 188.46875 98.101562 188.597656 98.289062 188.6875 98.5 C 188.78125 98.710938 188.828125 98.933594 188.828125 99.164062 L 190.054688 187.363281 L 262.292969 229.976562 C 262.628906 230.175781 262.871094 230.457031 263.019531 230.820312 C 263.164062 231.183594 263.1875 231.550781 263.085938 231.929688 C 262.980469 232.304688 262.773438 232.613281 262.464844 232.851562 C 262.152344 233.089844 261.800781 233.207031 261.410156 233.207031 Z M 261.410156 233.207031 "/><path style=" stroke:none;fill-rule:nonzero;fill:#64ffda;fill-opacity:1;" d="M 188.332031 275.285156 C 188.027344 275.28125 187.742188 275.207031 187.476562 275.050781 L 113.359375 232.980469 C 113.089844 232.828125 112.875 232.617188 112.71875 232.347656 C 112.5625 232.082031 112.484375 231.792969 112.480469 231.480469 C 112.480469 231.171875 112.554688 230.882812 112.710938 230.613281 C 112.863281 230.34375 113.074219 230.128906 113.34375 229.972656 L 187.460938 186.863281 C 187.660156 186.742188 187.875 186.664062 188.105469 186.632812 C 188.335938 186.597656 188.5625 186.609375 188.785156 186.667969 C 189.011719 186.726562 189.21875 186.824219 189.402344 186.964844 C 189.589844 187.105469 189.738281 187.273438 189.855469 187.476562 C 189.972656 187.675781 190.046875 187.894531 190.078125 188.125 C 190.105469 188.355469 190.089844 188.582031 190.03125 188.804688 C 189.96875 189.03125 189.867188 189.234375 189.722656 189.417969 C 189.582031 189.601562 189.40625 189.746094 189.203125 189.863281 L 117.695312 231.453125 L 189.1875 272.039062 C 189.53125 272.234375 189.777344 272.511719 189.933594 272.875 C 190.085938 273.238281 190.109375 273.609375 190.011719 273.992188 C 189.910156 274.371094 189.703125 274.683594 189.390625 274.921875 C 189.078125 275.164062 188.726562 275.285156 188.332031 275.285156 Z M 188.332031 275.285156 "/><path style=" stroke:none;fill-rule:nonzero;fill:#64ffda;fill-opacity:1;" d="M 114.214844 233.207031 C 113.984375 233.207031 113.765625 233.164062 113.550781 233.074219 C 113.339844 232.984375 113.152344 232.859375 112.988281 232.699219 C 112.828125 232.535156 112.699219 232.347656 112.613281 232.136719 C 112.523438 231.921875 112.480469 231.703125 112.480469 231.472656 L 112.480469 144.070312 C 112.480469 143.84375 112.523438 143.621094 112.613281 143.410156 C 112.699219 143.195312 112.828125 143.007812 112.988281 142.84375 C 113.152344 142.683594 113.339844 142.558594 113.550781 142.46875 C 113.765625 142.382812 113.984375 142.335938 114.214844 142.335938 C 114.445312 142.335938 114.667969 142.382812 114.878906 142.46875 C 115.09375 142.558594 115.28125 142.683594 115.441406 142.84375 C 115.605469 143.007812 115.730469 143.195312 115.820312 143.410156 C 115.90625 143.621094 115.949219 143.84375 115.949219 144.070312 L 115.949219 231.472656 C 115.949219 231.703125 115.90625 231.925781 115.816406 232.136719 C 115.730469 232.347656 115.605469 232.535156 115.441406 232.699219 C 115.277344 232.863281 115.089844 232.988281 114.878906 233.074219 C 114.667969 233.164062 114.445312 233.207031 114.214844 233.207031 Z M 114.214844 233.207031 "/><g clip-rule="nonzero" clip-path="url(#90dc52447d)"><path style=" stroke:none;fill-rule:nonzero;fill:#64ffda;fill-opacity:1;" d="M 263.625 360.324219 C 263.320312 360.320312 263.035156 360.246094 262.769531 360.09375 L 188.671875 317.917969 L 115.078125 360.09375 C 114.945312 360.171875 114.808594 360.226562 114.660156 360.265625 C 114.511719 360.304688 114.363281 360.324219 114.210938 360.324219 C 114.058594 360.324219 113.910156 360.304688 113.765625 360.265625 C 113.617188 360.226562 113.476562 360.167969 113.347656 360.089844 C 113.214844 360.015625 113.09375 359.921875 112.988281 359.816406 C 112.882812 359.707031 112.789062 359.589844 112.714844 359.457031 C 112.636719 359.324219 112.578125 359.1875 112.539062 359.039062 C 112.5 358.894531 112.480469 358.742188 112.480469 358.589844 L 112.480469 273.546875 C 112.480469 273.398438 112.5 273.25 112.539062 273.101562 C 112.578125 272.957031 112.636719 272.816406 112.714844 272.683594 C 112.789062 272.554688 112.882812 272.433594 112.988281 272.328125 C 113.09375 272.21875 113.214844 272.128906 113.34375 272.050781 C 113.476562 271.976562 113.617188 271.917969 113.761719 271.878906 C 113.90625 271.839844 114.058594 271.820312 114.207031 271.816406 C 114.359375 271.816406 114.507812 271.835938 114.65625 271.875 C 114.804688 271.914062 114.941406 271.96875 115.074219 272.046875 L 189.5 314.40625 L 189.554688 314.4375 L 264.484375 357.085938 C 264.824219 357.28125 265.070312 357.558594 265.222656 357.921875 C 265.371094 358.285156 265.398438 358.65625 265.296875 359.035156 C 265.195312 359.414062 264.992188 359.722656 264.679688 359.960938 C 264.371094 360.203125 264.019531 360.324219 263.625 360.324219 Z M 115.949219 276.53125 L 115.949219 355.597656 L 185.167969 315.929688 Z M 115.949219 276.53125 "/></g><g clip-rule="nonzero" clip-path="url(#36f94c9941)"><path style=" stroke:none;fill-rule:nonzero;fill:#64ffda;fill-opacity:1;" d="M 114.214844 360.324219 C 113.925781 360.324219 113.652344 360.253906 113.394531 360.117188 L 75.726562 339.867188 C 75.441406 339.714844 75.21875 339.503906 75.054688 339.226562 C 74.890625 338.949219 74.808594 338.652344 74.8125 338.332031 L 75.273438 252.335938 L 1.257812 210.394531 C 0.984375 210.242188 0.769531 210.027344 0.613281 209.757812 C 0.457031 209.488281 0.378906 209.195312 0.378906 208.882812 L 0.421875 165.6875 C 0.425781 165.375 0.503906 165.082031 0.664062 164.8125 C 0.824219 164.539062 1.039062 164.328125 1.3125 164.175781 C 1.589844 164.023438 1.882812 163.949219 2.199219 163.957031 C 2.511719 163.964844 2.800781 164.050781 3.070312 164.214844 L 75.886719 209.183594 L 77.042969 37.757812 C 77.046875 37.53125 77.089844 37.308594 77.179688 37.097656 C 77.269531 36.886719 77.394531 36.703125 77.558594 36.539062 C 77.71875 36.378906 77.90625 36.253906 78.117188 36.167969 C 78.328125 36.082031 78.550781 36.035156 78.777344 36.039062 L 78.789062 36.039062 C 79.019531 36.039062 79.242188 36.085938 79.453125 36.171875 C 79.664062 36.261719 79.851562 36.390625 80.015625 36.554688 C 80.175781 36.71875 80.300781 36.90625 80.386719 37.117188 C 80.472656 37.332031 80.515625 37.554688 80.515625 37.785156 L 79.335938 212.289062 C 79.332031 212.601562 79.253906 212.894531 79.09375 213.164062 C 78.933594 213.433594 78.714844 213.644531 78.441406 213.796875 C 78.167969 213.949219 77.871094 214.019531 77.558594 214.011719 C 77.246094 214.003906 76.957031 213.917969 76.6875 213.753906 L 3.890625 168.796875 L 3.847656 207.875 L 77.863281 249.820312 C 78.136719 249.972656 78.351562 250.1875 78.507812 250.460938 C 78.667969 250.730469 78.746094 251.023438 78.742188 251.339844 L 78.28125 337.308594 L 115.03125 357.0625 C 115.382812 357.25 115.636719 357.527344 115.796875 357.890625 C 115.957031 358.253906 115.988281 358.628906 115.890625 359.011719 C 115.792969 359.398438 115.589844 359.714844 115.273438 359.957031 C 114.960938 360.203125 114.605469 360.324219 114.207031 360.324219 Z M 114.214844 360.324219 "/></g><path style=" stroke:none;fill-rule:nonzero;fill:#64ffda;fill-opacity:1;" d="M 2.160156 167.425781 C 1.761719 167.425781 1.40625 167.300781 1.089844 167.054688 C 0.777344 166.8125 0.574219 166.496094 0.476562 166.109375 C 0.382812 165.722656 0.414062 165.347656 0.578125 164.980469 C 0.738281 164.617188 0.996094 164.34375 1.351562 164.15625 L 77.972656 123.636719 C 78.175781 123.523438 78.394531 123.453125 78.628906 123.425781 C 78.859375 123.398438 79.089844 123.417969 79.3125 123.484375 C 79.539062 123.550781 79.742188 123.65625 79.921875 123.804688 C 80.101562 123.953125 80.25 124.132812 80.359375 124.339844 C 80.46875 124.546875 80.53125 124.765625 80.550781 125 C 80.574219 125.234375 80.546875 125.460938 80.472656 125.683594 C 80.402344 125.90625 80.289062 126.105469 80.136719 126.285156 C 79.984375 126.460938 79.800781 126.601562 79.589844 126.703125 L 2.96875 167.222656 C 2.714844 167.359375 2.445312 167.425781 2.160156 167.425781 Z M 2.160156 167.425781 "/></g></svg>